<svg width="222" height="332" viewBox="0 0 222 332" fill="none" xmlns="http://www.w3.org/2000/svg">
<g clip-path="url(#clip0_260_105)">
<path d="M189.5 303.899C184.2 299.599 177.5 297.299 171 295.399C155.2 290.999 138.8 289.299 122.5 289.199C106.2 289.199 89.7999 290.999 73.9999 295.399C67.4999 297.299 60.8999 299.599 55.4999 303.899C45.7999 312.599 57.7999 320.199 65.6999 322.999C83.7999 329.599 103.3 331.899 122.4 331.899C141.6 331.899 161.1 329.599 179.1 322.999C187 320.199 199 312.599 189.3 303.899H189.5Z" fill="#84C1FA"/>
<path d="M43.9999 38.4996C27.9999 51.3996 15.9999 67.4996 8.3999 86.2996C0.699904 105.2 -1.50009 125.1 1.69991 145.5C4.89991 165.8 13.1999 184.1 26.2999 199.7C39.3999 215.3 55.6999 226.9 74.8999 234.2C94.0999 241.5 114.6 243.5 135.7 240.1L221.1 226.6L199.3 88.8996L100.2 104.6L107.8 152.4L154.5 145L160.7 183.9L129.3 188.9C118.2 190.7 107.3 189.5 97.0999 185.4C86.8999 181.3 78.0999 174.9 71.1999 166.4C64.2999 157.9 59.7999 147.9 58.0999 136.7C56.2999 125.5 57.4999 114.7 61.3999 104.4C65.3999 94.1996 71.6999 85.3996 80.1999 78.2996C88.6999 71.1996 98.5999 66.7996 109.7 64.9996L193.5 51.6996L185.4 0.599609L99.9999 14.0996C78.8999 17.3996 59.9999 25.6996 43.9999 38.4996Z" fill="white"/>
</g>
<defs>
<clipPath id="clip0_260_105">
<rect width="222" height="332" fill="white"/>
</clipPath>
</defs>
</svg>
